# xmcd
#
# Track frame offsets:
#	150
#	11305
#	21451
#	33215
#	43534
#	56084
#	68309
#	80338
#	93303
#	104323
#	116712
#	128713
#
# Disc length: 1858 seconds
#
# Revision: 1
# Processed by: cddbd v1.5.1PL0 Copyright (c) Steve Scherf et al.
# Submitted via: audiograbber 1.83.01
#
DISCID=8c07400c
DTITLE=Dottie West - Dottie West - Here Comes My Baby
DYEAR=1965
DGENRE=Country
TTITLE0=Here Comes My Baby Back Again
TTITLE1=Night Life
TTITLE2=That's Where Our Love Must Be
TTITLE3=In Its Own Little Way
TTITLE4=Take Me As I AM
TTITLE5=No One Will Ever Know
TTITLE6=Didn't I
TTITLE7=Mama Kiss The Hurt Away
TTITLE8=Touch Me
TTITLE9=Mama You'd Of Been Proud Of Me
TTITLE10=I Dreamed Of Am Old Love Affair
TTITLE11=All The World Is Loney Now
EXTD=
EXTT0=
EXTT1=
EXTT2=
EXTT3=
EXTT4=
EXTT5=
EXTT6=
EXTT7=
EXTT8=
EXTT9=
EXTT10=
EXTT11=
PLAYORDER=
